<svg width="200" height="200" viewBox="0 0 200 200" fill="none" xmlns="http://www.w3.org/2000/svg" class="logo">
    <defs></defs>
    <path 
        d="M107.428 29.7635L107.426 5.23329C103.06 4.31776 98.5891 3.69177 94.0308 3.37646V25.4817V84.743C98.1903 84.1056 102.543 83.5975 107.428 83.2324V29.7635Z" 
        fill="#F3F3F3" 
        style="stroke-dasharray: 186.385px; stroke-dashoffset: 186.385px; animation-delay: 0s; animation-duration: 1.24993s;"
    ></path>
    <path 
        fill-rule="evenodd" 
        clip-rule="evenodd" 
        d="M80.6358 199.538C48.3919 197.43 20.3896 179.775 4.05225 153.999L4.28131 153.647C6.87071 149.667 10.5908 143.953 13.2505 140.741C13.4148 140.522 13.5753 140.309 13.7352 140.097C14.9218 138.517 16.0705 136.988 18.3439 134.332C27.3553 124.301 47.3779 105.717 76.9136 98.86C94.6562 94.7392 106.311 92.2758 132.545 92.2758C142.75 92.2758 153.293 92.5643 162.925 92.9553C169.007 93.2026 174.557 93.509 179.949 93.8073C181.746 93.9051 183.524 94.003 185.3 94.0983C194.196 94.6438 199.897 95.097 199.897 95.097C199.897 95.097 194.278 95.3336 185.295 95.8898L163.144 97.4804C146.094 98.8783 125.621 100.976 107.428 103.985V161.309C103.104 162.514 98.6251 163.346 94.0307 163.76V106.472C89.2068 107.48 84.6949 108.572 80.6358 109.748V199.538ZM67.2383 175.09C49.7919 170.385 34.8192 159.644 24.701 145.248C33.1855 136.527 48.1885 123.153 67.2383 114.643V175.09Z" 
        fill="#F3F3F3" 
        style="stroke-dasharray: 800.894px; stroke-dashoffset: 800.894px; animation-delay: 0.333333s; animation-duration: 2.27715s;">
    </path>
    <path 
        d="M67.2383 90.5051C68.9502 90.0055 70.6876 89.5502 72.4481 89.1408C75.3076 88.4766 78.0076 87.8566 80.6357 87.2825V39.4291C76.0413 39.8456 71.5625 40.6752 67.2383 41.8806V90.5051Z" 
        fill="#F3F3F3" 
        style="stroke-dasharray: 123.899px; stroke-dashoffset: 123.899px; animation-delay: 0.666667s; animation-duration: 1.47s;"
    ></path>
</svg>